<svg width="589" height="322" viewBox="0 0 589 322" fill="none" xmlns="http://www.w3.org/2000/svg">
<rect x="164" width="45" height="164" transform="rotate(90 164 0)" fill="#EEF1F3"/>
<rect x="164" y="277" width="45" height="164" transform="rotate(90 164 277)" fill="#EEF1F3"/>
<rect width="45" height="164" transform="matrix(4.37114e-08 1 1 -4.37114e-08 425 0)" fill="#EEF1F3"/>
<rect width="45" height="164" transform="matrix(4.37114e-08 1 1 -4.37114e-08 425 277)" fill="#EEF1F3"/>
<rect x="330" width="45" height="154" fill="#EEF1F3"/>
<rect x="375" width="45" height="164" transform="rotate(90 375 0)" fill="#EEF1F3"/>
<rect x="375" y="109" width="45" height="164" transform="rotate(90 375 109)" fill="#EEF1F3"/>
<path d="M389.518 320.329H345.518L291.65 172.329H335.65L389.518 320.329Z" fill="#FF0763"/>
<path d="M345 320.329H390M291 172.329H336M389.527 320.355L335.53 172M345.527 320.355L291.53 172" stroke="#FF0763"/>
<rect x="123" width="41" height="322" fill="#FF0763"/>
<rect width="41" height="322" transform="matrix(-1 0 0 1 466 0)" fill="#FF0763"/>
</svg>
